<mxfile host="app.diagrams.net" modified="2023-07-18T01:22:59.244Z" agent="Mozilla/5.0 (Windows NT 10.0; Win64; x64) AppleWebKit/537.36 (KHTML, like Gecko) Chrome/114.0.0.0 Safari/537.36 Edg/114.0.1823.82" etag="neXvvA8rN5BhdE7B1xog" version="21.6.2" type="github">
  <diagram name="第 1 页" id="WrYNh-KysM9MoXon6aFu">
    <mxGraphModel dx="739" dy="470" grid="1" gridSize="10" guides="1" tooltips="1" connect="1" arrows="1" fold="1" page="1" pageScale="1" pageWidth="827" pageHeight="1169" math="0" shadow="0">
      <root>
        <mxCell id="0" />
        <mxCell id="1" parent="0" />
        <mxCell id="lUVAq6afupcRJk4meZPT-2" value="JVM-堆空间" style="text;html=1;align=center;verticalAlign=middle;resizable=0;points=[];autosize=1;strokeColor=none;fillColor=none;fontSize=19;fontColor=#FF3333;" vertex="1" parent="1">
          <mxGeometry x="260" y="110" width="120" height="40" as="geometry" />
        </mxCell>
        <mxCell id="lUVAq6afupcRJk4meZPT-3" value="伊甸园&lt;br style=&quot;font-size: 19px;&quot;&gt;（Eden）" style="rounded=0;whiteSpace=wrap;html=1;fillColor=#ffe6cc;strokeColor=#d79b00;fontSize=19;" vertex="1" parent="1">
          <mxGeometry x="60" y="180" width="280" height="200" as="geometry" />
        </mxCell>
        <mxCell id="lUVAq6afupcRJk4meZPT-4" value="老年代" style="rounded=0;whiteSpace=wrap;html=1;fillColor=#0050ef;fontColor=#ffffff;strokeColor=#001DBC;fontSize=19;" vertex="1" parent="1">
          <mxGeometry x="370" y="180" width="170" height="300" as="geometry" />
        </mxCell>
        <mxCell id="lUVAq6afupcRJk4meZPT-6" value="Survivor-From" style="rounded=0;whiteSpace=wrap;html=1;fillColor=#d80073;fontColor=#ffffff;strokeColor=#A50040;fontSize=19;" vertex="1" parent="1">
          <mxGeometry x="60" y="380" width="150" height="100" as="geometry" />
        </mxCell>
        <mxCell id="lUVAq6afupcRJk4meZPT-7" value="Survivor-To" style="rounded=0;whiteSpace=wrap;html=1;fillColor=#d80073;fontColor=#ffffff;strokeColor=#A50040;fontSize=19;" vertex="1" parent="1">
          <mxGeometry x="210" y="380" width="130" height="100" as="geometry" />
        </mxCell>
      </root>
    </mxGraphModel>
  </diagram>
</mxfile>
